<?xml version="1.0" encoding="utf-8"?>
<!-- Generator: Adobe Illustrator 17.1.0, SVG Export Plug-In . SVG Version: 6.00 Build 0)  -->
<!DOCTYPE svg PUBLIC "-//W3C//DTD SVG 1.1//EN" "http://www.w3.org/Graphics/SVG/1.1/DTD/svg11.dtd">
<svg version="1.1" id="Layer_1" xmlns="http://www.w3.org/2000/svg" xmlns:xlink="http://www.w3.org/1999/xlink" x="0px" y="0px"
	 viewBox="0 0 396.5 231.3" enable-background="new 0 0 396.5 231.3" xml:space="preserve">
<g>
	<path fill="#ED652F" d="M114.1,119.7c-0.2-19.8,16.1-29.4,16.9-29.8c-9.2-13.5-23.6-15.3-28.7-15.5c-12.2-1.2-23.8,7.2-30,7.2
		c-6.2,0-15.7-7-25.9-6.8C33.2,75,21,82.6,14.2,94.5c-13.8,24-3.4,59.5,10,78.9c6.6,9.5,14.4,20.2,24.7,19.8
		c9.9-0.4,13.7-6.4,25.6-6.4c12,0,15.4,6.4,25.9,6.2c10.7-0.2,17.4-9.7,23.9-19.3c7.5-11,10.6-21.7,10.8-22.3
		C135,151.3,114.4,143.4,114.1,119.7"/>
	<path fill="#ED652F" d="M94.5,61.6c5.5-6.6,9.2-15.8,8.1-25c-7.9,0.3-17.4,5.2-23.1,11.9c-5.1,5.9-9.5,15.2-8.3,24.2
		C80,73.3,89,68.2,94.5,61.6"/>
</g>
<g>
	<path fill-rule="evenodd" clip-rule="evenodd" fill="#ED652F" d="M380.1,86.3c-5.3,0-9.7,4.4-9.7,9.8v38.3c0,5.4,4.3,9.8,9.7,9.8
		c5.3,0,9.7-4.4,9.7-9.8V96.1C389.7,90.6,385.4,86.3,380.1,86.3z M263.7,86.3c-5.3,0-9.7,4.4-9.7,9.8v38.3c0,5.4,4.3,9.8,9.7,9.8
		c5.3,0,9.7-4.4,9.7-9.8V96.1C273.3,90.6,269,86.3,263.7,86.3z"/>
	<path fill-rule="evenodd" clip-rule="evenodd" fill="#ED652F" d="M279.1,86.6v70c0,4.2,3.4,7.5,7.5,7.5h8.6v21.3
		c0,5.4,4.3,9.8,9.7,9.8c5.3,0,9.7-4.4,9.7-9.8v-21.3h15v21.3c0,5.4,4.3,9.8,9.7,9.8c5.3,0,9.7-4.4,9.7-9.8v-21.3h8.6
		c4.2,0,7.5-3.4,7.5-7.5v-70H279.1z"/>
	<path fill-rule="evenodd" clip-rule="evenodd" fill="#ED652F" d="M342.2,50.3l7.9-11.5c0.5-0.7,0.4-1.6-0.3-2
		c-0.6-0.4-1.5-0.2-2,0.5l-8.2,12c-5.4-2.1-11.5-3.3-17.8-3.3c-6.4,0-12.4,1.2-17.8,3.3l-8.2-12c-0.5-0.7-1.4-0.9-2-0.5
		c-0.6,0.4-0.7,1.3-0.3,2l7.9,11.5c-12.6,5.9-21.5,17-22.6,30h85.9C363.7,67.3,354.9,56.2,342.2,50.3z M303.8,68.4
		c-2.6,0-4.8-2.1-4.8-4.8c0-2.6,2.1-4.8,4.8-4.8c2.6,0,4.8,2.1,4.8,4.8C308.5,66.3,306.4,68.4,303.8,68.4z M340.6,68.4
		c-2.6,0-4.8-2.1-4.8-4.8c0-2.6,2.1-4.8,4.8-4.8c2.6,0,4.8,2.1,4.8,4.8C345.3,66.3,343.2,68.4,340.6,68.4z"/>
</g>
<g>
	<path fill="#ED652F" d="M226.1,98.8c-7.6-7.9-19.9-7.9-27.5,0l-5.2,5.3l-5.2-5.4c-7.6-7.9-19.9-7.9-27.5,0
		c-8.5,8.9-8.5,23.3,0,32.2l32.6,34l32.6-34C234.6,122.1,234.6,107.7,226.1,98.8z"/>
</g>
</svg>
