<?xml version="1.0" encoding="utf-8"?>
<!-- Generator: Adobe Illustrator 17.1.0, SVG Export Plug-In . SVG Version: 6.00 Build 0)  -->
<!DOCTYPE svg PUBLIC "-//W3C//DTD SVG 1.1//EN" "http://www.w3.org/Graphics/SVG/1.1/DTD/svg11.dtd">
<svg version="1.1" id="Layer_1" xmlns="http://www.w3.org/2000/svg" xmlns:xlink="http://www.w3.org/1999/xlink" x="0px" y="0px"
	 viewBox="0 0 250.8 231.3" enable-background="new 0 0 250.8 231.3" xml:space="preserve">
<g>
	<path fill-rule="evenodd" clip-rule="evenodd" fill="#ED652F" d="M124.9,130.1c11,0,19.9-8.9,19.9-19.8c0-10.9-8.9-19.8-19.9-19.8
		c-11,0-19.9,8.9-19.9,19.8C105,121.2,113.9,130.1,124.9,130.1L124.9,130.1L124.9,130.1z M89.4,110.3c0-19.5,15.9-35.3,35.5-35.3
		c19.6,0,35.5,15.8,35.5,35.3c0,19.5-15.9,35.3-35.5,35.3C105.3,145.6,89.4,129.8,89.4,110.3L89.4,110.3z"/>
	<polygon fill-rule="evenodd" clip-rule="evenodd" fill="#ED652F" points="148.3,176.7 148.3,161.2 101.5,161.2 101.5,176.7 
		148.3,176.7 	"/>
	<polygon fill-rule="evenodd" clip-rule="evenodd" fill="#ED652F" points="148.3,207.8 148.3,192.3 101.5,192.3 101.5,207.8 
		148.3,207.8 	"/>
	<polygon fill-rule="evenodd" clip-rule="evenodd" fill="#ED652F" points="61.2,79.8 72.2,90.8 105.3,57.8 94.3,46.8 61.2,79.8 	"/>
	<polygon fill-rule="evenodd" clip-rule="evenodd" fill="#ED652F" points="39.1,58 50.1,69 83.2,35.8 72.2,25 39.1,58 	"/>
	<polygon fill-rule="evenodd" clip-rule="evenodd" fill="#ED652F" points="182.8,23.6 146.4,59.8 175.3,88.4 211.7,52.6 182.8,23.6 
			"/>
</g>
</svg>
