<?xml version="1.0" encoding="utf-8"?>
<!-- Generator: Adobe Illustrator 17.1.0, SVG Export Plug-In . SVG Version: 6.00 Build 0)  -->
<!DOCTYPE svg PUBLIC "-//W3C//DTD SVG 1.1//EN" "http://www.w3.org/Graphics/SVG/1.1/DTD/svg11.dtd">
<svg version="1.1" id="Layer_1" xmlns="http://www.w3.org/2000/svg" xmlns:xlink="http://www.w3.org/1999/xlink" x="0px" y="0px"
	 viewBox="0 0 612.7 231.3" enable-background="new 0 0 612.7 231.3" xml:space="preserve">
<path fill="#FFFFFF" d="M279.3,106.7l-18.1-8.1v10.8h-163c4-3.4,7.9-7.5,11.6-11.5c4.8-5.3,9.3-10.6,12.4-13.9
	c3.9-4.3,7.5-6.7,10.1-8.1c1.3-0.7,2.3-1.1,2.9-1.4c0.1,0,0.2-0.1,0.3-0.1h26.7c2.3,7.2,9,12.5,17,12.5c9.8,0,17.8-8,17.8-17.8
	c0-9.8-8-17.8-17.8-17.8c-8.3,0-15.2,5.7-17.2,13.4h-27.8c0,0-0.5,0.1-0.5,0.1c-14.5,3.5-22.5,18.3-32.4,28.1
	c-5,4.9-10.9,8.7-16.7,12.7c-1.7,1.3-4.9,2.8-7.5,3.8H63.3C60.8,97,49.9,87.7,36.9,87.7c-14.9,0-27,12.1-27,27c0,14.9,12.1,27,27,27
	c13.1,0,24-9.3,26.5-21.6c0,0,51.9,0,52.1,0c5.2,0,12.6,4.7,16.8,7.5c8.3,5.6,14,13.7,20.1,21.5c6.4,8.2,14.3,17.9,25.6,18.2
	c1.9,0.1,24-0.5,24-0.2V180h36.6v-36.6h-36.6v14.2h-25.9c-3.1-2.2-11.8-8.8-16-14.3c-3-3.8-8.3-11.2-14.6-18.1
	c-1.7-1.9-3.6-3.6-5.6-5.1h121.4V131l18.1-8.1l18.1-8.1L279.3,106.7z"/>
<path fill="#FFFFFF" d="M333.4,124.6l18.1,8.1v-10.8h163c-4,3.4-7.9,7.5-11.6,11.5c-4.8,5.3-9.3,10.6-12.4,13.9
	c-3.9,4.3-7.5,6.7-10.1,8.1c-1.3,0.7-2.3,1.1-2.9,1.4c-0.1,0-0.2,0.1-0.3,0.1h-26.7c-2.3-7.2-9-12.5-17-12.5
	c-9.8,0-17.8,8-17.8,17.8c0,9.8,8,17.8,17.8,17.8c8.3,0,15.2-5.7,17.2-13.4h27.8c0,0,0.5-0.1,0.5-0.1c14.5-3.5,22.5-18.3,32.4-28.1
	c5-4.9,10.9-8.7,16.7-12.7c1.7-1.3,4.9-2.8,7.5-3.8h13.8c2.5,12.3,13.4,21.6,26.5,21.6c14.9,0,27-12.1,27-27c0-14.9-12.1-27-27-27
	c-13.1,0-24,9.3-26.5,21.6c0,0-51.9,0-52.1,0c-5.2,0-12.6-4.7-16.8-7.5c-8.3-5.6-14-13.7-20.1-21.5c-6.4-8.2-14.3-17.9-25.6-18.2
	c-1.9-0.1-24,0.5-24,0.2V51.3h-36.6v36.6h36.6V73.7h25.9c3.1,2.2,11.8,8.8,16,14.3c3,3.8,8.3,11.2,14.6,18.1
	c1.7,1.9,3.6,3.6,5.6,5.1H351.4v-10.8l-18.1,8.1l-18.1,8.1L333.4,124.6z"/>
</svg>
