<?xml version="1.0" encoding="utf-8"?>
<!-- Generator: Adobe Illustrator 17.1.0, SVG Export Plug-In . SVG Version: 6.00 Build 0)  -->
<!DOCTYPE svg PUBLIC "-//W3C//DTD SVG 1.1//EN" "http://www.w3.org/Graphics/SVG/1.1/DTD/svg11.dtd">
<svg version="1.1" id="Layer_1" xmlns="http://www.w3.org/2000/svg" xmlns:xlink="http://www.w3.org/1999/xlink" x="0px" y="0px"
	 viewBox="0 0 250.8 231.3" enable-background="new 0 0 250.8 231.3" xml:space="preserve">
<g>
	<path fill="#ED652F" d="M203,94.2c0-42.9-34.8-77.6-77.6-77.6c-42.9,0-77.6,34.8-77.6,77.6c0,18.3,6.4,35.2,17,48.5c0,0,0,0,0,0
		c0,0,0,0,0,0c20,25,48.4,60.4,57.6,71.9c0.7,0.9,1.9,1.5,3,1.5c1.2,0,2.3-0.5,3-1.5c9.2-11.5,37.5-46.9,57.6-71.9c0,0,0,0,0,0
		c0,0,0,0,0,0C196.6,129.4,203,112.5,203,94.2z M173.4,133.5l-48,60l-47.6-59.4l-0.5-0.6c-0.1-0.2-0.3-0.4-0.4-0.6
		c-8.9-11.1-13.6-24.5-13.6-38.8c0-34.2,27.9-62.1,62.1-62.1s62.1,27.9,62.1,62.1c0,14.2-4.7,27.7-13.6,38.8
		C173.7,133.2,173.6,133.3,173.4,133.5z"/>
	<circle fill="#ED652F" cx="125.4" cy="94.2" r="27.2"/>
</g>
</svg>
