<?xml version="1.0" encoding="utf-8"?>
<!-- Generator: Adobe Illustrator 17.1.0, SVG Export Plug-In . SVG Version: 6.00 Build 0)  -->
<!DOCTYPE svg PUBLIC "-//W3C//DTD SVG 1.1//EN" "http://www.w3.org/Graphics/SVG/1.1/DTD/svg11.dtd">
<svg version="1.1" id="Layer_1" xmlns="http://www.w3.org/2000/svg" xmlns:xlink="http://www.w3.org/1999/xlink" x="0px" y="0px"
	 viewBox="0 0 250.8 231.3" enable-background="new 0 0 250.8 231.3" xml:space="preserve">
<g>
	<path fill="#ED652F" d="M125.4,17.2c-54.2,0-98.1,45-98.1,100.6c0,44.5,28.1,82.1,67.1,95.5c4.9,0.9,6.7-2.2,6.7-4.9
		c0-2.4-0.1-8.7-0.1-17.1c-27.3,6.1-33.1-13.5-33.1-13.5C63.4,166.2,57,163.1,57,163.1c-8.9-6.3,0.7-6.1,0.7-6.1
		c9.9,0.7,15,10.4,15,10.4c8.8,15.4,23,11,28.6,8.4c0.9-6.5,3.4-11,6.2-13.4c-21.8-2.5-44.7-11.2-44.7-49.7c0-11,3.8-20,10.1-27
		c-1-2.5-4.4-12.8,1-26.6c0,0,8.2-2.7,27,10.3c7.8-2.2,16.2-3.3,24.6-3.4c8.3,0,16.7,1.1,24.6,3.4c18.8-13,26.9-10.3,26.9-10.3
		c5.3,13.8,2,24.1,1,26.6c6.3,7.1,10.1,16,10.1,27c0,38.6-23,47.1-44.8,49.6c3.5,3.1,6.7,9.2,6.7,18.6c0,13.4-0.1,24.3-0.1,27.6
		c0,2.7,1.8,5.8,6.7,4.8c39.1-13.3,67.2-51,67.2-95.4C223.5,62.2,179.6,17.2,125.4,17.2z"/>
</g>
</svg>
