<?xml version="1.0" encoding="utf-8"?>
<!-- Generator: Adobe Illustrator 17.1.0, SVG Export Plug-In . SVG Version: 6.00 Build 0)  -->
<!DOCTYPE svg PUBLIC "-//W3C//DTD SVG 1.1//EN" "http://www.w3.org/Graphics/SVG/1.1/DTD/svg11.dtd">
<svg version="1.1" id="Layer_1" xmlns="http://www.w3.org/2000/svg" xmlns:xlink="http://www.w3.org/1999/xlink" x="0px" y="0px"
	 viewBox="0 0 574 128.5" enable-background="new 0 0 574 128.5" xml:space="preserve">
<g>
	<path fill="#FFFFFF" d="M169.2,100c-10.7,0-18.9-2.3-25.9-9.4l9-9c4.5,4.5,10.6,6,17.1,6c8.2,0,12.5-3.1,12.5-8.8
		c0-2.5-0.7-4.6-2.2-6c-1.4-1.3-3-2-6.3-2.5l-8.6-1.2c-6.1-0.9-10.6-2.8-13.7-5.9c-3.4-3.4-5.1-8-5.1-13.9
		c0-12.6,9.4-21.5,24.7-21.5c9.8,0,16.8,2.4,22.9,8.3l-8.8,8.7c-4.5-4.3-9.9-4.9-14.5-4.9c-7.4,0-10.9,4.1-10.9,9
		c0,1.8,0.6,3.7,2.1,5.1c1.4,1.3,3.7,2.4,6.6,2.8l8.4,1.2c6.5,0.9,10.6,2.7,13.5,5.5c3.8,3.6,5.5,8.8,5.5,15
		C195.5,92.3,184,100,169.2,100z"/>
	<path fill="#FFFFFF" d="M229.9,118.4V94.9c-3.4,3.8-7.4,5.2-12.6,5.2c-5.1,0-9.8-1.8-12.6-4.7c-5.2-5.2-5.3-14.1-5.3-21.9
		c0-7.8,0.1-16.6,5.3-21.8c2.9-2.9,7.7-4.7,12.7-4.7c5.5,0,9.3,1.5,12.8,5.5v-4.9h12.6v70.9H229.9z M221.1,58.6
		c-7.8,0-8.8,6.4-8.8,14.8c0,8.5,1,14.9,8.8,14.9s8.9-6.5,8.9-14.9C229.9,65,228.8,58.6,221.1,58.6z"/>
	<path fill="#FFFFFF" d="M279.3,99.4v-4.8c-3.4,3.6-8.2,5.4-12.9,5.4c-5.2,0-9.4-1.7-12.2-4.6c-4.2-4.2-5.3-9.1-5.3-14.7V47.6h12.9
		v31.4c0,7.1,4.5,9.5,8.6,9.5c4.1,0,8.7-2.4,8.7-9.5V47.6h12.9v51.9H279.3z"/>
	<path fill="#FFFFFF" d="M327.1,99.4V95c-3.5,3.5-6.8,5-12.7,5c-5.9,0-10.2-1.5-13.2-4.6c-2.8-2.9-4.3-7.1-4.3-11.6
		c0-8.3,5.7-15,17.7-15h12.2v-2.6c0-5.7-2.8-8.2-9.7-8.2c-5,0-7.3,1.2-10,4.3l-8.3-8.1c5.1-5.6,10.1-7.2,18.7-7.2
		c14.5,0,22.1,6.2,22.1,18.3v34.1H327.1z M326.8,77.5h-10.3c-4.7,0-7.3,2.2-7.3,5.9c0,3.6,2.4,6,7.5,6c3.6,0,5.9-0.3,8.2-2.5
		c1.4-1.3,1.9-3.4,1.9-6.6V77.5z"/>
	<path fill="#FFFFFF" d="M371.9,61.7c-2-2-3.7-3.1-6.9-3.1c-4,0-8.4,3-8.4,9.6v31.3h-12.9V47.6h12.6v5c2.5-3,7.5-5.6,13-5.6
		c5.1,0,8.7,1.3,12.2,4.9L371.9,61.7z"/>
	<path fill="#FFFFFF" d="M390.1,77.5c0,6.7,4.1,11.5,11.3,11.5c5.7,0,8.5-1.6,11.7-4.9l7.9,7.7c-5.3,5.3-10.4,8.2-19.7,8.2
		c-12.2,0-24-5.6-24-26.6c0-16.9,9.2-26.5,22.6-26.5c14.4,0,22.6,10.6,22.6,24.8v5.8H390.1z M408.6,63.1c-1.4-3.1-4.3-5.4-8.7-5.4
		c-4.4,0-7.3,2.3-8.7,5.4c-0.8,1.9-1.1,3.3-1.2,5.6h19.7C409.7,66.4,409.4,65,408.6,63.1z"/>
	<path fill="#FFFFFF" d="M456.5,74.2h-10.7v25.3h-17.4V28.6h28.1c15.7,0,24.2,11.1,24.2,22.8C480.7,63,472.2,74.2,456.5,74.2z
		 M455.7,44.2h-9.9v14.3h9.9c4.8,0,7.6-3.5,7.6-7.2C463.2,47.7,460.4,44.2,455.7,44.2z"/>
	<path fill="#FFFFFF" d="M494.5,77.9c0,4.4,3.4,8.4,9.5,8.4c5.7,0,8.2-1.6,11-4.5l9.8,9.8c-5.5,5.5-10.8,8.5-20.8,8.5
		c-11.8,0-25.5-4.3-25.5-27.4c0-17.5,10-27.4,24-27.4c15.5,0,24.1,11.3,24.1,25.4v7.3H494.5z M509.5,62.9c-1-2.3-3.2-4.2-7.1-4.2
		c-3.9,0-6.1,1.9-7.1,4.2c-0.7,1.4-0.9,2.9-0.9,4.2h15.9C510.4,65.8,510.2,64.3,509.5,62.9z"/>
	<path fill="#FFFFFF" d="M549.8,117.4c-8.4,0-14.6-1.5-20.1-7l10.2-10.2c2.5,2.5,5.5,3.4,9.2,3.4c6.9,0,8.7-4.7,8.7-8.2v-3.9
		c-3,3-6.6,4.5-11.5,4.5c-5.2,0-9.5-1.7-12.5-4.8c-4.9-4.9-5-10.8-5-20.6s0.1-15.7,5-20.6c3.1-3.1,7.5-4.8,12.6-4.8
		c5.5,0,8.7,1.7,11.9,5v-4.4H574v49.7C574,108.2,564.5,117.4,549.8,117.4z M551.3,60c-6,0-6.4,5.2-6.4,10.7c0,5.5,0.4,10.7,6.4,10.7
		s6.4-5.2,6.4-10.7C557.7,65.2,557.3,60,551.3,60z"/>
</g>
<path fill="#FFFFFF" d="M23.9,0L0,104.6l104.6,23.9l23.9-104.6L23.9,0z M57.1,108.8c-22.9-5.2-37.1-28-31.9-50.9
	c5.2-22.9,28-37.1,50.9-31.9C99,31.2,113.2,54,108,76.9S80,114,57.1,108.8z"/>
<path fill="#ED652F" d="M94.3,42.4c-8.1-6.7-19.8-5.3-26.1,3.1l-4.3,5.7l-5.5-4.5c-8.1-6.7-19.8-5.3-26.1,3.1
	c-7.1,9.4-5.5,23.1,3.7,30.6L70.8,109l27.2-36C105.1,63.6,103.4,49.9,94.3,42.4z"/>
</svg>
